<?xml version="1.0" encoding="UTF-8"?>
<svg xmlns="http://www.w3.org/2000/svg" width="260" height="55.998">
  <g data-name="logo no tagline">
    <path fill="#0083ad" d="M.366 42.921a5.753 5.753 0 0 0 1.332 2.044l9.355 9.322a5.753 5.753 0 0 0 2.044 1.332l8.743-8.756-12.7-12.7Z" data-name="Path 1849"></path>
    <path fill="#004a98" d="M.366 25.388a5.84 5.84 0 0 0-.366 2v13.535a5.8 5.8 0 0 0 .366 2l8.769-8.763Z" data-name="Path 1850"></path>
    <path fill="#63cfe3" d="M15.076 55.998h13.557a5.84 5.84 0 0 0 2-.366l-8.795-8.77-8.76 8.77a5.773 5.773 0 0 0 2 .366Z" data-name="Path 1851"></path>
    <path fill="#773dbd" d="M1.678 23.35a5.673 5.673 0 0 0-1.332 2.035l8.789 8.769 2.85-2.857a12.345 12.345 0 0 0 0-17.459.573.573 0 0 0-.806 0Z" data-name="Path 1852"></path>
    <path fill="#00bbb4" d="m21.84 46.863 8.789 8.769a5.673 5.673 0 0 0 2.038-1.332l9.362-9.322a5.826 5.826 0 0 0 1.332-2.044l-8.81-8.776Z" data-name="Path 1853"></path>
    <path fill="#7a97ab" d="m42.01 23.35-9.509-9.509a.573.573 0 0 0-.806 0 12.345 12.345 0 0 0 0 17.459l2.857 2.857 8.758-8.772a5.74 5.74 0 0 0-1.3-2.035Z" data-name="Path 1854"></path>
    <path fill="#008aab" d="m43.315 25.388-8.763 8.769 8.763 8.763a5.647 5.647 0 0 0 .366-2V27.392a5.686 5.686 0 0 0-.366-2Z" data-name="Path 1855"></path>
    <circle cx="5.593" cy="5.593" r="5.593" fill="#ff9e18" data-name="Ellipse 55" transform="rotate(-33.63 17.287 -20.191)"></circle>
    <path fill="#004a98" d="M57.191 30.609c0-8.177 4.781-12.758 12.651-12.758a31.7 31.7 0 0 1 8.323 1.085 1.5 1.5 0 0 1 1.132 2l-.34 1.625a1.525 1.525 0 0 1-2.071 1.085 26.668 26.668 0 0 0-6.346-.839c-5.021 0-7.325 2.663-7.325 8.33v9.134c0 5.62 2.271 8.277 7.325 8.277a25.3 25.3 0 0 0 6.506-.839 1.4 1.4 0 0 1 1.878 1.139l.34 1.671a1.6 1.6 0 0 1-1.132 2 33.486 33.486 0 0 1-8.323 1.039c-7.837 0-12.651-4.488-12.651-12.718Z" data-name="Path 1856"></path>
    <path fill="#004a98" d="M83.599 19.082a1.864 1.864 0 0 1 2-2h1.778a1.864 1.864 0 0 1 2 2v27.966c0 1.039.246 1.432.539 1.678a1.6 1.6 0 0 1 .666 1.871l-.393 1.378c-.193.839-.666 1.531-2.164 1.285-2.124-.446-4.341-1.578-4.341-5.62Z" data-name="Path 1857"></path>
    <path fill="#004a98" d="M94.832 20.214a3.329 3.329 0 1 1 3.329 3.329 3.329 3.329 0 0 1-3.329-3.329Zm.446 9.116a1.858 1.858 0 0 1 2-2h1.824a1.824 1.824 0 0 1 1.924 2v21.581a1.824 1.824 0 0 1-1.924 2h-1.824a1.858 1.858 0 0 1-2-2Z" data-name="Path 1858"></path>
    <path fill="#004a98" d="M105.875 29.33a1.858 1.858 0 0 1 2-2h.939c1.179 0 2 .446 2.117 1.578l.1.786a10.78 10.78 0 0 1 7.091-3c5.374 0 8.283 3.249 8.283 8.656v15.56a1.864 1.864 0 0 1-2 2h-1.78a1.864 1.864 0 0 1-2-2V36.182c0-3.156-.985-4.588-3.7-4.588-2 0-3.6.939-5.374 2.517v16.8a1.824 1.824 0 0 1-1.918 2h-1.771a1.858 1.858 0 0 1-2-2Z" data-name="Path 1859"></path>
    <path fill="#004a98" d="M131.395 30.609c0-8.177 4.781-12.758 12.618-12.758a31.7 31.7 0 0 1 8.323 1.085 1.5 1.5 0 0 1 1.139 2l-.326 1.6a1.525 1.525 0 0 1-2.071 1.085 26.634 26.634 0 0 0-6.326-.812c-5.027 0-7.325 2.663-7.325 8.33v9.132c0 5.62 2.271 8.277 7.325 8.277a25.349 25.349 0 0 0 6.505-.839 1.392 1.392 0 0 1 1.891 1.139l.346 1.671a1.611 1.611 0 0 1-1.139 2 33.486 33.486 0 0 1-8.323 1.039c-7.837 0-12.618-4.488-12.618-12.718Z" data-name="Path 1860"></path>
    <path fill="#004a98" d="M157.757 19.082a1.864 1.864 0 0 1 2-2h1.824a1.824 1.824 0 0 1 1.924 2V29.23a10.587 10.587 0 0 1 6.506-2.51c5.367 0 8.277 3.249 8.277 8.656V50.91a1.864 1.864 0 0 1-2 2h-1.778a1.864 1.864 0 0 1-2-2V36.177c0-3.2-.986-4.588-3.7-4.588-1.918 0-3.6.939-5.367 2.517v16.8a1.824 1.824 0 0 1-1.924 2h-1.824a1.864 1.864 0 0 1-2-2Z" data-name="Path 1861"></path>
    <path fill="#004a98" d="M182.001 38.153c0-6.852 4-11.433 10.94-11.433s10.94 4.581 10.94 11.433v3.887c0 7.052-4.042 11.486-10.94 11.486s-10.94-4.433-10.94-11.486Zm10.94 10.494c3.942 0 5.174-2.564 5.174-7v-3.055c0-4.335-1.232-7-5.174-7s-5.127 2.663-5.127 7v3.056c0 4.462 1.185 6.999 5.127 6.999Z" data-name="Path 1862"></path>
    <path fill="#004a98" d="M207.423 20.214a3.329 3.329 0 1 1 3.329 3.329 3.329 3.329 0 0 1-3.329-3.329Zm.446 9.116a1.858 1.858 0 0 1 2-2h1.824a1.824 1.824 0 0 1 1.918 2v21.581a1.824 1.824 0 0 1-1.918 2h-1.824a1.858 1.858 0 0 1-2-2Z" data-name="Path 1863"></path>
    <path fill="#004a98" d="M217.624 38.299c0-6.659 3.6-11.579 10.987-11.579a23.644 23.644 0 0 1 6.212.839 1.814 1.814 0 0 1 1.478 2.364l-.3 1.085a1.909 1.909 0 0 1-2.557 1.132 18.837 18.837 0 0 0-4.535-.546c-4.188 0-5.473 3.01-5.473 7.151v2.663c0 4.242 1.285 7.245 5.473 7.245a16.753 16.753 0 0 0 4.728-.666 1.673 1.673 0 0 1 2.364 1.179l.3.985a1.831 1.831 0 0 1-1.478 2.464 21.826 21.826 0 0 1-6.212.892c-7.391 0-10.987-4.981-10.987-11.633Z" data-name="Path 1864"></path>
    <path fill="#004a98" d="M238.959 37.314c0-5.52 3.8-10.594 10.494-10.594A10.374 10.374 0 0 1 260 37.314v3.326a1.185 1.185 0 0 1-1.132 1.179h-14.189v1.141c0 2.41.832 5.713 5.467 5.713a24.637 24.637 0 0 0 5.467-.739c1.232-.293 2.124 0 2.47 1.232l.193.939a1.791 1.791 0 0 1-1.378 2.364 23.579 23.579 0 0 1-6.752 1.085c-7.784 0-11.186-5.227-11.186-10.594Zm15.315.446v-.839c0-2.61-1.185-5.327-4.781-5.327s-4.828 2.763-4.828 5.327v.839Z" data-name="Path 1865"></path>
  </g>
</svg>
